<?xml version="1.0" encoding="UTF-8" standalone="no"?>
<!DOCTYPE svg PUBLIC "-//W3C//DTD SVG 1.1//EN" "http://www.w3.org/Graphics/SVG/1.1/DTD/svg11.dtd">
<svg width="100%" height="100%" viewBox="0 0 2190 341" version="1.1" xmlns="http://www.w3.org/2000/svg" xmlns:xlink="http://www.w3.org/1999/xlink" xml:space="preserve" xmlns:serif="http://www.serif.com/" style="fill-rule:evenodd;clip-rule:evenodd;stroke-linejoin:round;stroke-miterlimit:2;">
    <g transform="matrix(1,0,0,1,-1003.05,-982.146)">
        <g transform="matrix(4.22501,0,0,4.22501,-5829.17,-5084.67)">
            <path d="M1750.28,1490.64C1748.02,1490.64 1746.03,1490.14 1744.33,1489.14C1742.63,1488.14 1741.31,1486.61 1740.36,1484.56C1739.41,1482.51 1738.93,1479.92 1738.93,1476.79C1738.93,1473.62 1739.38,1471.02 1740.28,1468.99C1741.18,1466.95 1742.48,1465.44 1744.18,1464.44C1745.88,1463.44 1747.91,1462.94 1750.28,1462.94C1752.82,1462.94 1755.09,1463.51 1757.11,1464.66C1759.12,1465.81 1760.72,1467.42 1761.91,1469.49C1763.09,1471.55 1763.68,1473.99 1763.68,1476.79C1763.68,1479.62 1763.09,1482.07 1761.91,1484.14C1760.72,1486.2 1759.12,1487.8 1757.11,1488.94C1755.09,1490.07 1752.82,1490.64 1750.28,1490.64ZM1734.38,1499.94L1734.38,1463.34L1741.83,1463.34L1741.83,1468.84L1741.68,1476.84L1742.18,1484.79L1742.18,1499.94L1734.38,1499.94ZM1748.93,1484.24C1750.23,1484.24 1751.39,1483.94 1752.41,1483.34C1753.42,1482.74 1754.24,1481.88 1754.86,1480.76C1755.47,1479.65 1755.78,1478.32 1755.78,1476.79C1755.78,1475.22 1755.47,1473.89 1754.86,1472.79C1754.24,1471.69 1753.42,1470.84 1752.41,1470.24C1751.39,1469.64 1750.23,1469.34 1748.93,1469.34C1747.63,1469.34 1746.47,1469.64 1745.43,1470.24C1744.4,1470.84 1743.58,1471.69 1742.98,1472.79C1742.38,1473.89 1742.08,1475.22 1742.08,1476.79C1742.08,1478.32 1742.38,1479.65 1742.98,1480.76C1743.58,1481.88 1744.4,1482.74 1745.43,1483.34C1746.47,1483.94 1747.63,1484.24 1748.93,1484.24Z" style="fill-rule:nonzero;"/>
            <path d="M1768.88,1490.24L1768.88,1463.34L1776.33,1463.34L1776.33,1470.94L1775.28,1468.74C1776.08,1466.84 1777.37,1465.4 1779.13,1464.41C1780.9,1463.43 1783.05,1462.94 1785.58,1462.94L1785.58,1470.14C1785.25,1470.1 1784.95,1470.08 1784.68,1470.06C1784.41,1470.05 1784.13,1470.04 1783.83,1470.04C1781.7,1470.04 1779.97,1470.65 1778.66,1471.86C1777.34,1473.08 1776.68,1474.97 1776.68,1477.54L1776.68,1490.24L1768.88,1490.24Z" style="fill-rule:nonzero;"/>
            <path d="M1790.23,1490.24L1790.23,1463.34L1798.03,1463.34L1798.03,1490.24L1790.23,1490.24ZM1794.13,1459.59C1792.7,1459.59 1791.53,1459.17 1790.63,1458.34C1789.73,1457.5 1789.28,1456.47 1789.28,1455.24C1789.28,1454 1789.73,1452.97 1790.63,1452.14C1791.53,1451.3 1792.7,1450.89 1794.13,1450.89C1795.57,1450.89 1796.73,1451.28 1797.63,1452.06C1798.53,1452.85 1798.98,1453.85 1798.98,1455.09C1798.98,1456.39 1798.54,1457.46 1797.66,1458.31C1796.77,1459.16 1795.6,1459.59 1794.13,1459.59Z" style="fill-rule:nonzero;"/>
            <path d="M1821.63,1462.94C1823.77,1462.94 1825.67,1463.36 1827.36,1464.21C1829.04,1465.06 1830.37,1466.36 1831.33,1468.11C1832.3,1469.86 1832.78,1472.1 1832.78,1474.84L1832.78,1490.24L1824.98,1490.24L1824.98,1476.04C1824.98,1473.87 1824.51,1472.27 1823.56,1471.24C1822.61,1470.2 1821.27,1469.69 1819.53,1469.69C1818.3,1469.69 1817.19,1469.95 1816.21,1470.46C1815.22,1470.98 1814.46,1471.77 1813.91,1472.84C1813.36,1473.9 1813.08,1475.27 1813.08,1476.94L1813.08,1490.24L1805.28,1490.24L1805.28,1463.34L1812.73,1463.34L1812.73,1470.79L1811.33,1468.54C1812.3,1466.74 1813.68,1465.35 1815.48,1464.39C1817.28,1463.42 1819.33,1462.94 1821.63,1462.94Z" style="fill-rule:nonzero;"/>
            <path d="M1850.83,1490.64C1847.66,1490.64 1845.2,1489.83 1843.43,1488.21C1841.66,1486.6 1840.78,1484.19 1840.78,1480.99L1840.78,1457.39L1848.58,1457.39L1848.58,1480.89C1848.58,1482.02 1848.88,1482.9 1849.48,1483.51C1850.08,1484.13 1850.9,1484.44 1851.93,1484.44C1853.16,1484.44 1854.22,1484.1 1855.08,1483.44L1857.18,1488.94C1856.38,1489.5 1855.42,1489.93 1854.31,1490.21C1853.19,1490.5 1852.03,1490.64 1850.83,1490.64ZM1836.63,1469.94L1836.63,1463.94L1855.28,1463.94L1855.28,1469.94L1836.63,1469.94Z" style="fill-rule:nonzero;"/>
            <path d="M1874.08,1490.64C1871.02,1490.64 1868.32,1490.04 1866.01,1488.84C1863.69,1487.64 1861.9,1486 1860.63,1483.91C1859.37,1481.83 1858.73,1479.45 1858.73,1476.79C1858.73,1474.09 1859.36,1471.7 1860.61,1469.61C1861.86,1467.53 1863.57,1465.9 1865.73,1464.71C1867.9,1463.53 1870.35,1462.94 1873.08,1462.94C1875.72,1462.94 1878.09,1463.5 1880.21,1464.61C1882.32,1465.73 1884,1467.33 1885.23,1469.41C1886.47,1471.5 1887.08,1473.99 1887.08,1476.89C1887.08,1477.19 1887.07,1477.53 1887.03,1477.91C1887,1478.3 1886.97,1478.65 1886.93,1478.99L1865.08,1478.99L1865.08,1474.44L1882.83,1474.44L1879.83,1475.79C1879.83,1474.39 1879.55,1473.17 1878.98,1472.14C1878.41,1471.1 1877.63,1470.3 1876.63,1469.71C1875.63,1469.13 1874.47,1468.84 1873.13,1468.84C1871.8,1468.84 1870.62,1469.13 1869.61,1469.71C1868.59,1470.3 1867.8,1471.11 1867.23,1472.16C1866.66,1473.21 1866.38,1474.45 1866.38,1475.89L1866.38,1477.09C1866.38,1478.55 1866.71,1479.85 1867.36,1480.96C1868.01,1482.08 1868.92,1482.93 1870.11,1483.51C1871.29,1484.1 1872.68,1484.39 1874.28,1484.39C1875.72,1484.39 1876.97,1484.17 1878.06,1483.74C1879.14,1483.3 1880.13,1482.65 1881.03,1481.79L1885.18,1486.29C1883.95,1487.69 1882.4,1488.76 1880.53,1489.51C1878.66,1490.26 1876.52,1490.64 1874.08,1490.64Z" style="fill-rule:nonzero;"/>
            <path d="M1892.28,1490.24L1892.28,1463.34L1899.73,1463.34L1899.73,1470.94L1898.68,1468.74C1899.48,1466.84 1900.77,1465.4 1902.53,1464.41C1904.3,1463.43 1906.45,1462.94 1908.98,1462.94L1908.98,1470.14C1908.65,1470.1 1908.35,1470.08 1908.08,1470.06C1907.82,1470.05 1907.53,1470.04 1907.23,1470.04C1905.1,1470.04 1903.37,1470.65 1902.06,1471.86C1900.74,1473.08 1900.08,1474.97 1900.08,1477.54L1900.08,1490.24L1892.28,1490.24Z" style="fill-rule:nonzero;"/>
            <path d="M1928.93,1463.49C1931.1,1463.49 1933.01,1463.9 1934.66,1464.74C1936.31,1465.57 1937.6,1466.84 1938.53,1468.54C1939.47,1470.24 1939.93,1472.39 1939.93,1474.99L1939.93,1490.24L1935.13,1490.24L1935.13,1475.54C1935.13,1472.97 1934.51,1471.04 1933.26,1469.74C1932.01,1468.44 1930.25,1467.79 1927.98,1467.79C1926.28,1467.79 1924.8,1468.12 1923.53,1468.79C1922.27,1469.45 1921.29,1470.44 1920.61,1471.74C1919.92,1473.04 1919.58,1474.65 1919.58,1476.59L1919.58,1490.24L1914.78,1490.24L1914.78,1453.14L1919.58,1453.14L1919.58,1470.89L1918.63,1468.99C1919.5,1467.25 1920.83,1465.9 1922.63,1464.94C1924.43,1463.97 1926.53,1463.49 1928.93,1463.49Z" style="fill-rule:nonzero;"/>
            <path d="M1948.83,1490.24L1948.83,1463.74L1953.63,1463.74L1953.63,1490.24L1948.83,1490.24ZM1951.23,1458.64C1950.3,1458.64 1949.52,1458.34 1948.91,1457.74C1948.29,1457.14 1947.98,1456.4 1947.98,1455.54C1947.98,1454.64 1948.29,1453.89 1948.91,1453.29C1949.52,1452.69 1950.3,1452.39 1951.23,1452.39C1952.16,1452.39 1952.94,1452.68 1953.56,1453.26C1954.17,1453.85 1954.48,1454.57 1954.48,1455.44C1954.48,1456.34 1954.18,1457.1 1953.58,1457.71C1952.98,1458.33 1952.2,1458.64 1951.23,1458.64Z" style="fill-rule:nonzero;"/>
            <path d="M1969.73,1490.24L1958.13,1463.74L1963.13,1463.74L1973.43,1487.74L1971.03,1487.74L1981.53,1463.74L1986.23,1463.74L1974.63,1490.24L1969.73,1490.24Z" style="fill-rule:nonzero;"/>
            <path d="M2001.78,1490.54C1998.95,1490.54 1996.46,1489.95 1994.31,1488.79C1992.16,1487.62 1990.49,1486.02 1989.31,1483.99C1988.12,1481.95 1987.53,1479.62 1987.53,1476.99C1987.53,1474.35 1988.11,1472.02 1989.26,1469.99C1990.41,1467.95 1991.99,1466.36 1994.01,1465.21C1996.02,1464.06 1998.3,1463.49 2000.83,1463.49C2003.4,1463.49 2005.66,1464.05 2007.63,1465.19C2009.6,1466.32 2011.14,1467.91 2012.26,1469.96C2013.37,1472.01 2013.93,1474.4 2013.93,1477.14C2013.93,1477.34 2013.92,1477.57 2013.91,1477.84C2013.89,1478.1 2013.87,1478.35 2013.83,1478.59L1991.28,1478.59L1991.28,1475.14L2011.33,1475.14L2009.38,1476.34C2009.41,1474.64 2009.07,1473.12 2008.33,1471.79C2007.6,1470.45 2006.59,1469.41 2005.31,1468.66C2004.02,1467.91 2002.53,1467.54 2000.83,1467.54C1999.16,1467.54 1997.68,1467.91 1996.38,1468.66C1995.08,1469.41 1994.07,1470.46 1993.33,1471.81C1992.6,1473.16 1992.23,1474.7 1992.23,1476.44L1992.23,1477.24C1992.23,1479 1992.64,1480.58 1993.46,1481.96C1994.27,1483.35 1995.41,1484.42 1996.88,1485.19C1998.35,1485.95 2000.03,1486.34 2001.93,1486.34C2003.5,1486.34 2004.92,1486.07 2006.21,1485.54C2007.49,1485 2008.62,1484.2 2009.58,1483.14L2012.23,1486.24C2011.03,1487.64 2009.54,1488.7 2007.76,1489.44C2005.97,1490.17 2003.98,1490.54 2001.78,1490.54Z" style="fill-rule:nonzero;"/>
            <path d="M2021.73,1490.54C2020.8,1490.54 2020,1490.21 2019.33,1489.56C2018.66,1488.91 2018.33,1488.09 2018.33,1487.09C2018.33,1486.09 2018.66,1485.27 2019.33,1484.64C2020,1484 2020.8,1483.69 2021.73,1483.69C2022.63,1483.69 2023.41,1484 2024.06,1484.64C2024.71,1485.27 2025.03,1486.09 2025.03,1487.09C2025.03,1488.09 2024.71,1488.91 2024.06,1489.56C2023.41,1490.21 2022.63,1490.54 2021.73,1490.54Z" style="fill-rule:nonzero;"/>
            <path d="M2042.88,1490.54C2040.18,1490.54 2037.77,1489.95 2035.66,1488.79C2033.54,1487.62 2031.88,1486.02 2030.68,1483.99C2029.48,1481.95 2028.88,1479.62 2028.88,1476.99C2028.88,1474.35 2029.48,1472.02 2030.68,1469.99C2031.88,1467.95 2033.54,1466.36 2035.66,1465.21C2037.77,1464.06 2040.18,1463.49 2042.88,1463.49C2045.28,1463.49 2047.42,1463.96 2049.31,1464.91C2051.19,1465.86 2052.65,1467.27 2053.68,1469.14L2050.03,1471.49C2049.16,1470.19 2048.11,1469.23 2046.86,1468.61C2045.61,1468 2044.27,1467.69 2042.83,1467.69C2041.1,1467.69 2039.55,1468.07 2038.18,1468.84C2036.82,1469.6 2035.73,1470.68 2034.93,1472.06C2034.13,1473.45 2033.73,1475.09 2033.73,1476.99C2033.73,1478.89 2034.13,1480.54 2034.93,1481.94C2035.73,1483.34 2036.82,1484.42 2038.18,1485.19C2039.55,1485.95 2041.1,1486.34 2042.83,1486.34C2044.27,1486.34 2045.61,1486.03 2046.86,1485.41C2048.11,1484.8 2049.16,1483.84 2050.03,1482.54L2053.68,1484.84C2052.65,1486.67 2051.19,1488.08 2049.31,1489.06C2047.42,1490.05 2045.28,1490.54 2042.88,1490.54Z" style="fill-rule:nonzero;"/>
            <path d="M2070.83,1490.54C2068.16,1490.54 2065.8,1489.95 2063.73,1488.79C2061.66,1487.62 2060.03,1486.01 2058.83,1483.96C2057.63,1481.91 2057.03,1479.59 2057.03,1476.99C2057.03,1474.35 2057.63,1472.02 2058.83,1469.99C2060.03,1467.95 2061.66,1466.36 2063.73,1465.21C2065.8,1464.06 2068.16,1463.49 2070.83,1463.49C2073.47,1463.49 2075.82,1464.06 2077.91,1465.21C2079.99,1466.36 2081.62,1467.95 2082.81,1469.96C2083.99,1471.98 2084.58,1474.32 2084.58,1476.99C2084.58,1479.62 2083.99,1481.95 2082.81,1483.99C2081.62,1486.02 2079.99,1487.62 2077.91,1488.79C2075.82,1489.95 2073.47,1490.54 2070.83,1490.54ZM2070.83,1486.34C2072.53,1486.34 2074.06,1485.95 2075.41,1485.19C2076.76,1484.42 2077.82,1483.33 2078.58,1481.91C2079.35,1480.5 2079.73,1478.85 2079.73,1476.99C2079.73,1475.09 2079.35,1473.45 2078.58,1472.06C2077.82,1470.68 2076.76,1469.6 2075.41,1468.84C2074.06,1468.07 2072.53,1467.69 2070.83,1467.69C2069.13,1467.69 2067.62,1468.07 2066.28,1468.84C2064.95,1469.6 2063.88,1470.68 2063.08,1472.06C2062.28,1473.45 2061.88,1475.09 2061.88,1476.99C2061.88,1478.85 2062.28,1480.5 2063.08,1481.91C2063.88,1483.33 2064.95,1484.42 2066.28,1485.19C2067.62,1485.95 2069.13,1486.34 2070.83,1486.34Z" style="fill-rule:nonzero;"/>
            <path d="M2124.38,1463.49C2126.51,1463.49 2128.4,1463.9 2130.03,1464.74C2131.66,1465.57 2132.94,1466.84 2133.86,1468.54C2134.77,1470.24 2135.23,1472.39 2135.23,1474.99L2135.23,1490.24L2130.43,1490.24L2130.43,1475.54C2130.43,1472.97 2129.83,1471.04 2128.63,1469.74C2127.43,1468.44 2125.75,1467.79 2123.58,1467.79C2121.98,1467.79 2120.58,1468.12 2119.38,1468.79C2118.18,1469.45 2117.26,1470.44 2116.61,1471.74C2115.96,1473.04 2115.63,1474.65 2115.63,1476.59L2115.63,1490.24L2110.83,1490.24L2110.83,1475.54C2110.83,1472.97 2110.24,1471.04 2109.06,1469.74C2107.87,1468.44 2106.18,1467.79 2103.98,1467.79C2102.41,1467.79 2101.03,1468.12 2099.83,1468.79C2098.63,1469.45 2097.7,1470.44 2097.03,1471.74C2096.37,1473.04 2096.03,1474.65 2096.03,1476.59L2096.03,1490.24L2091.23,1490.24L2091.23,1463.74L2095.83,1463.74L2095.83,1470.79L2095.08,1468.99C2095.91,1467.25 2097.2,1465.9 2098.93,1464.94C2100.66,1463.97 2102.68,1463.49 2104.98,1463.49C2107.51,1463.49 2109.7,1464.11 2111.53,1465.36C2113.37,1466.61 2114.57,1468.5 2115.13,1471.04L2113.18,1470.24C2113.98,1468.2 2115.38,1466.57 2117.38,1465.34C2119.38,1464.1 2121.72,1463.49 2124.38,1463.49Z" style="fill-rule:nonzero;"/>
        </g>
        <g>
            <g transform="matrix(0.368853,0,0,0.368853,719.951,840.728)">
                <path d="M1467.67,698.889L1467.67,1102.35L1118.27,1304.07L768.87,1102.35L768.87,698.889L1118.27,497.162L1467.67,698.889ZM1118.27,561.077L824.222,730.847L824.222,1070.39L1118.27,1240.16L1412.32,1070.39L1412.32,730.847L1118.27,561.077Z" style="fill:rgb(242,175,13);stroke:rgb(242,175,13);stroke-width:2.71px;"/>
            </g>
            <g transform="matrix(0.196075,0,0,0.196075,1140.46,966.811)">
                <path d="M1516.45,670.729L1516.45,1130.51L1118.27,1360.39L720.095,1130.51L720.095,670.729L1118.27,440.841L1516.45,670.729ZM1118.27,561.077L824.222,730.847L824.222,1070.39L1118.27,1240.16L1412.32,1070.39L1412.32,730.847L1118.27,561.077Z" style="fill:rgb(242,175,13);stroke:rgb(242,175,13);stroke-width:5.1px;"/>
            </g>
            <g transform="matrix(0.0879854,0,0,0.0879854,1173.09,952.525)">
                <path d="M1601.75,621.482L1601.75,1179.75L1118.27,1458.89L634.797,1179.75L634.797,621.482L1118.27,342.347L1601.75,621.482ZM1118.27,561.077L824.222,730.847L824.222,1070.39L1118.27,1240.16L1412.32,1070.39L1412.32,730.847L1118.27,561.077Z" style="fill:rgb(242,175,13);stroke:rgb(242,175,13);stroke-width:11.37px;"/>
            </g>
        </g>
    </g>
    <g transform="matrix(1,0,0,1,-915.468,-778.826)">
        <g transform="matrix(0.54251,0,0,1.00931,230.181,-252.143)">
            <path d="M2575.64,1059.93L2575.64,1108.22C2575.64,1113.93 2567.01,1118.57 2556.39,1118.57L2195.9,1118.57C2185.28,1118.57 2176.65,1113.93 2176.65,1108.22L2176.65,1059.93C2176.65,1054.22 2185.28,1049.58 2195.9,1049.58L2556.39,1049.58C2567.01,1049.58 2575.64,1054.22 2575.64,1059.93Z"/>
        </g>
        <g transform="matrix(0.303841,0,0,0.303841,596.524,619.121)">
            <path d="M2764.43,807.56L2764.43,659.684L2830.77,659.684C2847.81,659.684 2860.9,663.1 2870.06,669.93C2879.21,676.761 2883.79,686.091 2883.79,697.921C2883.79,705.948 2881.99,712.708 2878.4,718.201C2874.81,723.693 2869.99,727.918 2863.93,730.876C2857.88,733.833 2851.33,735.312 2844.29,735.312L2848.09,728.975C2856.54,728.975 2864,730.453 2870.48,733.411C2876.96,736.368 2882.1,740.699 2885.9,746.403C2889.7,752.107 2891.61,759.184 2891.61,767.634C2891.61,780.309 2886.85,790.132 2877.35,797.103C2867.84,804.074 2853.72,807.56 2834.99,807.56L2764.43,807.56ZM2785.56,790.449L2834.15,790.449C2845.84,790.449 2854.78,788.477 2860.97,784.534C2867.17,780.59 2870.27,774.394 2870.27,765.944C2870.27,757.353 2867.17,751.086 2860.97,747.142C2854.78,743.199 2845.84,741.227 2834.15,741.227L2783.66,741.227L2783.66,724.116L2828.86,724.116C2839.57,724.116 2847.88,722.144 2853.79,718.201C2859.71,714.258 2862.66,708.343 2862.66,700.456C2862.66,692.569 2859.71,686.654 2853.79,682.711C2847.88,678.767 2839.57,676.796 2828.86,676.796L2785.56,676.796L2785.56,790.449Z" style="fill:white;fill-rule:nonzero;"/>
            <path d="M2943.57,723.482L3019.62,723.482L3019.62,741.438L2943.57,741.438L2943.57,723.482ZM2945.47,789.181L3031.66,789.181L3031.66,807.56L2924.35,807.56L2924.35,659.684L3028.71,659.684L3028.71,678.063L2945.47,678.063L2945.47,789.181Z" style="fill:white;fill-rule:nonzero;"/>
            <path d="M3095.25,807.56L3095.25,678.063L3044.55,678.063L3044.55,659.684L3166.87,659.684L3166.87,678.063L3116.16,678.063L3116.16,807.56L3095.25,807.56Z" style="fill:white;fill-rule:nonzero;"/>
            <path d="M3167.5,807.56L3234.47,659.684L3255.38,659.684L3322.56,807.56L3300.38,807.56L3240.59,671.514L3249.04,671.514L3189.26,807.56L3167.5,807.56ZM3196.02,770.591L3201.72,753.691L3284.95,753.691L3291.08,770.591L3196.02,770.591Z" style="fill:white;fill-rule:nonzero;"/>
        </g>
    </g>
</svg>
